<svg id="flat" height="512" viewBox="0 0 512 512" width="512" xmlns="http://www.w3.org/2000/svg"><path d="m432 272a175.11445 175.11445 0 0 1 -23.55 88h-304.89995a176.01079 176.01079 0 1 1 328.44995-88z" fill="#8760e6"/><path d="m392 272a135.45133 135.45133 0 0 1 -32.3 88h-207.39995a135.868 135.868 0 0 1 2.04-178.3501 140.40907 140.40907 0 0 1 11.30981-11.31006 135.27306 135.27306 0 0 1 82.35014-34.09984q3.97485-.23986 8-.24 4.0199 0 8 .24a135.43944 135.43944 0 0 1 82.3501 34.09985 140.40907 140.40907 0 0 1 11.30981 11.31006 135.45 135.45 0 0 1 34.34009 90.35009z" fill="#d1e4ff"/><path d="m238.239 247.715 64.548-50.247-16.79 78.084z" fill="#ef5e3b"/><circle cx="256" cy="272" fill="#f5714f" r="32"/><path d="m24 296h464v120h-464z" fill="#ffc431"/><circle cx="96" cy="352" fill="#8be0e8" r="24"/><g fill="#ffa100"><path d="m96 320a31.978 31.978 0 0 0 -27.55566 48.24121l-18.10157 18.10156 11.31446 11.31446 18.10156-18.10157a31.994 31.994 0 1 0 16.24121-59.55566zm0 48a16 16 0 1 1 16-16 16.01833 16.01833 0 0 1 -16 16z"/><path d="m152 376h16v16h-16z"/><path d="m184 376h16v16h-16z"/><path d="m216 376h16v16h-16z"/><path d="m248 376h16v16h-16z"/><path d="m280 376h16v16h-16z"/><path d="m312 320h16v72h-16z"/></g><path d="m429.24805 172.00586a199.98541 199.98541 0 0 0 -50.17481-57.666l9.85352-12.60546a215.91587 215.91587 0 0 1 54.1709 62.25976z" fill="#d1e4ff"/><path d="m443.69531 202.76953c-1.916-5.19433-4.07617-10.36914-6.41992-15.38086l14.49414-6.77734c2.53223 5.416 4.86621 11.00683 6.9375 16.61914z" fill="#d1e4ff"/><path d="m264 136.24v23.76h-16v-23.76q3.97485-.23986 8-.24 4.0199 0 8 .24z" fill="#bed3f7"/><path d="m315.35986 149.6001-9.10986 21.98974-14.78-6.12984 9.11011-21.99a135.91234 135.91234 0 0 1 14.77975 6.1301z" fill="#bed3f7"/><path d="m357.65991 181.6499-16.80981 16.8101-11.3101-11.3101 16.81006-16.81006a140.40907 140.40907 0 0 1 11.30985 11.31006z" fill="#bed3f7"/><path d="m384.53 227.41992-21.99 9.11008-6.13013-14.78 21.99-9.10986a135.91234 135.91234 0 0 1 6.13013 14.77978z" fill="#bed3f7"/><path d="m155.59009 221.75-6.13009 14.78-21.99-9.11011a135.91234 135.91234 0 0 1 6.13013-14.77978z" fill="#bed3f7"/><path d="m182.46 187.1499-11.3101 11.3101-16.80981-16.8101a140.40907 140.40907 0 0 1 11.30981-11.31006z" fill="#bed3f7"/><path d="m220.53 165.46-14.78 6.12988-9.10986-21.98974a135.91234 135.91234 0 0 1 14.77978-6.13014z" fill="#bed3f7"/></svg>